<?xml version="1.0" standalone="no"?>
<!DOCTYPE svg PUBLIC "-//W3C//DTD SVG 20010904//EN"
 "http://www.w3.org/TR/2001/REC-SVG-20010904/DTD/svg10.dtd">
<svg version="1.0" xmlns="http://www.w3.org/2000/svg"
 width="1600.000000pt" height="1600.000000pt" viewBox="0 0 1600.000000 1600.000000"
 preserveAspectRatio="xMidYMid meet">

<g transform="translate(0.000000,1600.000000) scale(0.100000,-0.100000)"
fill="#000000" stroke="none">
<path d="M2603 8838 l3 -1423 26 -93 c31 -112 61 -188 101 -260 31 -56 128
-161 187 -203 146 -105 394 -155 650 -130 207 19 363 85 479 202 128 128 193
276 231 529 5 30 9 673 9 1428 l1 1372 -335 0 -335 0 -2 -1367 c-3 -1308 -4
-1370 -22 -1418 -10 -27 -31 -63 -47 -80 -27 -28 -34 -30 -103 -30 -65 0 -78
3 -101 25 -24 22 -32 37 -61 105 -5 11 -11 637 -14 1390 l-5 1370 -333 3 -333
2 4 -1422z"/>
<path d="M4933 10248 c-4 -7 -15 -76 -24 -153 -16 -135 -49 -403 -89 -725 -11
-85 -29 -234 -40 -330 -10 -96 -24 -202 -30 -235 -6 -33 -17 -121 -26 -195 -8
-74 -26 -225 -40 -335 -14 -110 -33 -274 -44 -365 -10 -91 -21 -181 -25 -200
-4 -19 -15 -109 -26 -200 -51 -420 -70 -579 -78 -635 -5 -33 -10 -72 -10 -87
l-1 -28 330 0 c182 0 330 3 330 8 0 50 57 542 63 549 3 3 76 4 161 4 l156 -2
-6 73 c-3 40 -9 93 -14 118 -5 25 -14 116 -21 202 l-12 157 -101 3 -101 3 1
45 c0 25 6 92 12 150 66 577 72 654 61 795 -5 72 -14 159 -19 195 -6 36 -19
173 -30 305 -11 132 -22 249 -25 260 -3 11 -12 103 -21 205 -8 102 -21 239
-27 305 l-12 120 -142 3 c-106 2 -144 -1 -150 -10z"/>
<path d="M6557 10254 c-4 -4 -7 -792 -7 -1751 l0 -1743 534 0 c431 0 550 3
620 15 48 8 94 19 104 24 9 5 47 23 84 41 81 39 157 105 207 179 40 58 91 162
91 184 0 7 5 18 10 23 9 9 49 188 65 294 10 66 5 1940 -5 2040 -35 335 -168
542 -411 639 -121 48 -187 53 -754 58 -292 2 -534 1 -538 -3z m930 -628 c92
-47 93 -54 93 -1154 0 -960 -1 -969 -40 -1041 -21 -40 -86 -63 -192 -68 l-98
-6 0 1148 0 1148 103 -5 c68 -3 113 -10 134 -22z"/>
<path d="M8921 10238 c-4 -13 -13 -81 -20 -153 -6 -71 -18 -173 -26 -225 -8
-52 -24 -176 -36 -275 -11 -99 -29 -245 -39 -325 -10 -80 -28 -226 -39 -325
-12 -99 -26 -207 -31 -240 -5 -33 -17 -125 -25 -205 -8 -80 -18 -156 -20 -170
-3 -14 -12 -88 -20 -165 -8 -77 -18 -151 -21 -165 -6 -25 -43 -329 -69 -570
-8 -69 -19 -154 -25 -190 -6 -36 -20 -141 -31 -235 -10 -93 -22 -185 -25 -202
l-6 -33 331 0 c182 0 331 1 331 3 0 1 7 61 16 132 12 111 42 395 44 418 0 4
72 7 159 7 88 0 162 3 164 8 3 6 -17 250 -39 470 l-7 72 -103 0 -104 0 0 43
c1 40 14 174 61 607 12 107 21 209 21 225 0 38 -38 447 -47 500 -3 22 -15 141
-25 265 -35 398 -51 563 -63 655 l-13 90 -142 3 c-140 3 -142 2 -151 -20z"/>
<path d="M10446 10252 c-4 -7 38 -409 49 -462 3 -14 14 -106 26 -205 11 -99
29 -245 39 -325 10 -80 30 -242 44 -360 37 -308 62 -508 80 -640 8 -63 18
-149 21 -190 4 -41 11 -93 15 -115 5 -22 16 -110 25 -195 8 -85 20 -182 26
-215 5 -33 16 -114 24 -180 8 -66 25 -217 39 -335 14 -118 28 -227 32 -243 l6
-28 146 3 147 3 7 40 c4 22 14 135 23 250 8 116 20 244 26 285 9 73 17 149 60
620 31 331 32 301 -40 960 -10 96 -28 263 -39 370 -12 107 -23 213 -25 235 -3
22 -17 150 -32 285 -14 135 -31 291 -38 348 l-11 102 -322 0 c-178 0 -325 -4
-328 -8z"/>
<path d="M5323 10178 c4 -40 9 -118 13 -173 4 -55 10 -104 14 -110 4 -5 11
-66 15 -135 4 -69 10 -129 13 -135 4 -5 7 -35 8 -65 0 -30 6 -98 12 -150 15
-123 34 -337 33 -375 0 -16 4 -48 9 -70 10 -43 28 -236 37 -400 3 -55 9 -102
13 -105 4 -3 13 -93 20 -200 6 -107 16 -200 22 -207 5 -6 9 -31 9 -55 -1 -80
30 -443 38 -459 5 -8 12 -72 16 -142 4 -70 11 -129 15 -132 4 -3 6 -27 3 -54
-2 -27 0 -66 6 -87 5 -22 15 -112 22 -201 l12 -163 324 0 323 0 0 44 c0 25 -4
47 -8 50 -5 3 -9 46 -10 96 0 51 -5 97 -10 103 -5 7 -15 79 -22 160 -8 81 -16
144 -19 138 -3 -5 -6 14 -7 42 -1 57 -39 383 -48 407 -6 16 -8 39 -26 240 -7
74 -16 144 -21 155 -10 24 -39 292 -38 353 0 24 -4 49 -9 55 -5 7 -15 79 -22
160 -8 81 -17 150 -22 153 -4 3 -8 25 -8 49 0 24 -4 47 -10 50 -5 3 -7 18 -4
33 5 26 -16 227 -36 347 -5 33 -12 94 -15 135 -3 41 -10 95 -15 120 -13 57
-27 179 -35 294 -3 50 -9 95 -13 100 -4 6 -9 34 -12 61 -3 32 -10 49 -18 48
-6 -2 -12 4 -12 12 0 8 5 15 10 15 6 0 10 15 10 34 0 32 -2 35 -30 34 -18 -1
-31 -7 -33 -17 -4 -13 -5 -13 -6 2 -1 16 -19 17 -230 17 -174 0 -231 -3 -234
-12 -4 -10 -6 -10 -6 0 -1 6 -6 12 -12 12 -8 0 -10 -21 -6 -72z m524 -50 c-3
-8 -6 -5 -6 6 -1 11 2 17 5 13 3 -3 4 -12 1 -19z m-400 -920 c-3 -7 -5 -2 -5
12 0 14 2 19 5 13 2 -7 2 -19 0 -25z m30 -205 c-3 -10 -5 -4 -5 12 0 17 2 24
5 18 2 -7 2 -21 0 -30z m100 -675 c-3 -7 -5 -2 -5 12 0 14 2 19 5 13 2 -7 2
-19 0 -25z m-1 -134 c-8 -21 -26 -17 -26 7 0 11 5 17 10 14 6 -4 11 9 12 32
l1 38 4 -39 c3 -21 2 -44 -1 -52z m11 -51 c-3 -10 -5 -4 -5 12 0 17 2 24 5 18
2 -7 2 -21 0 -30z m-7 -133 c0 -5 -4 -10 -10 -10 -5 0 -10 5 -10 10 0 6 5 10
10 10 6 0 10 -4 10 -10z m7 -156 c-3 -3 -12 -4 -19 -1 -8 3 -5 6 6 6 11 1 17
-2 13 -5z m570 -46 c-3 -8 -6 -5 -6 6 -1 11 2 17 5 13 3 -3 4 -12 1 -19z m70
-640 c-3 -8 -6 -5 -6 6 -1 11 2 17 5 13 3 -3 4 -12 1 -19z m-550 -130 c-3 -7
-5 -2 -5 12 0 14 2 19 5 13 2 -7 2 -19 0 -25z m550 0 c-3 -8 -6 -5 -6 6 -1 11
2 17 5 13 3 -3 4 -12 1 -19z m8 -88 c-4 -23 -9 -39 -11 -37 -3 2 -2 23 2 46 4
23 9 40 11 37 3 -3 2 -23 -2 -46z m-568 -32 c-3 -7 -5 -2 -5 12 0 14 2 19 5
13 2 -7 2 -19 0 -25z"/>
<path d="M9314 10163 c4 -49 11 -104 16 -123 5 -19 14 -100 20 -180 7 -80 14
-161 16 -180 2 -19 12 -130 22 -245 14 -154 24 -220 37 -245 17 -34 17 -34 0
-20 -17 14 -18 13 -11 -15 12 -55 46 -433 46 -521 0 -24 5 -44 10 -44 6 0 10
-28 10 -65 0 -51 3 -65 15 -65 8 0 15 -5 15 -11 0 -5 -4 -7 -10 -4 -16 10 -8
-138 14 -275 7 -48 25 -254 33 -375 3 -55 9 -105 14 -111 5 -5 11 -59 14 -119
4 -69 10 -112 18 -117 9 -6 9 -8 0 -8 -14 0 -6 -67 10 -87 6 -9 6 -13 -3 -13
-8 0 -10 -10 -6 -32 13 -70 15 -87 25 -218 6 -74 16 -179 23 -232 l11 -98 319
0 318 0 0 33 c-1 66 -38 380 -46 386 -5 3 -9 26 -10 51 0 83 -17 250 -24 250
-4 0 -5 23 -2 50 3 29 0 50 -5 50 -5 0 -15 66 -22 148 -7 81 -16 156 -21 167
-7 19 -22 150 -37 327 -3 43 -10 75 -14 72 -5 -3 -9 12 -9 33 0 61 -29 345
-40 383 -5 19 -12 62 -14 95 -3 33 -9 87 -13 120 -4 33 -6 63 -5 68 1 4 -3 28
-8 54 -6 26 -20 126 -31 222 -10 97 -27 228 -36 291 -9 63 -16 133 -15 155 0
29 -2 35 -7 20 -6 -14 -8 -2 -9 35 -1 49 -33 348 -48 443 l-6 37 -280 0 -280
0 6 -87z m41 57 c3 -5 -1 -10 -9 -10 -9 0 -16 5 -16 10 0 6 4 10 9 10 6 0 13
-4 16 -10z m15 -64 c0 -3 -4 -8 -10 -11 -5 -3 -10 -1 -10 4 0 6 5 11 10 11 6
0 10 -2 10 -4z m-3 -268 c-3 -8 -6 -5 -6 6 -1 11 2 17 5 13 3 -3 4 -12 1 -19z
m90 -410 c-3 -7 -5 -2 -5 12 0 14 2 19 5 13 2 -7 2 -19 0 -25z m470 10 c-3 -8
-6 -5 -6 6 -1 11 2 17 5 13 3 -3 4 -12 1 -19z m-460 -100 c-3 -8 -6 -5 -6 6
-1 11 2 17 5 13 3 -3 4 -12 1 -19z m-7 -62 c0 -3 -4 -8 -10 -11 -5 -3 -10 -1
-10 4 0 6 5 11 10 11 6 0 10 -2 10 -4z m-33 -73 c-3 -10 -5 -2 -5 17 0 19 2
27 5 18 2 -10 2 -26 0 -35z m610 -515 c-3 -8 -6 -5 -6 6 -1 11 2 17 5 13 3 -3
4 -12 1 -19z m-43 -23 c-4 -8 -8 -15 -10 -15 -2 0 -4 7 -4 15 0 8 4 15 10 15
5 0 7 -7 4 -15z m36 -24 c0 -5 -7 -11 -15 -15 -15 -5 -20 5 -8 17 9 10 23 9
23 -2z m-513 -373 c-3 -8 -6 -5 -6 6 -1 11 2 17 5 13 3 -3 4 -12 1 -19z m53
-12 c0 -11 -19 -15 -25 -6 -3 5 1 10 9 10 9 0 16 -2 16 -4z m-28 -128 c-8 -8
-9 -4 -5 13 4 13 8 18 11 10 2 -7 -1 -18 -6 -23z m19 -285 c-8 -15 -10 -15
-11 -2 0 17 10 32 18 25 2 -3 -1 -13 -7 -23z m552 -20 c-3 -7 -6 -13 -8 -13
-2 0 -5 6 -8 13 -3 8 1 14 8 14 7 0 11 -6 8 -14z m-463 -482 c0 -5 -10 -11
-22 -14 -22 -6 -22 -6 -4 8 23 17 26 18 26 6z m557 -83 c-2 -13 -4 -5 -4 17
-1 22 1 32 4 23 2 -10 2 -28 0 -40z m-567 32 c0 -5 -2 -10 -4 -10 -3 0 -8 5
-11 10 -3 6 -1 10 4 10 6 0 11 -4 11 -10z m7 -157 c-2 -16 -4 -3 -4 27 0 30 2
43 4 28 2 -16 2 -40 0 -55z m560 -60 c-3 -10 -5 -4 -5 12 0 17 2 24 5 18 2 -7
2 -21 0 -30z m40 -50 c-3 -10 -5 -4 -5 12 0 17 2 24 5 18 2 -7 2 -21 0 -30z
m-40 -75 c-2 -13 -4 -3 -4 22 0 25 2 35 4 23 2 -13 2 -33 0 -45z"/>
<path d="M11595 10230 c-4 -11 -15 -118 -26 -238 -25 -274 -42 -453 -79 -817
-5 -49 -12 -139 -15 -199 -3 -61 -10 -113 -16 -116 -5 -4 -9 -27 -9 -51 1 -24
-1 -66 -4 -94 -3 -27 -8 -86 -11 -130 -3 -44 -10 -118 -16 -165 -30 -259 -40
-413 -27 -421 8 -6 9 -9 2 -9 -17 0 -24 -40 -38 -210 -2 -25 -6 -70 -10 -100
-3 -30 -8 -93 -11 -139 -2 -47 -9 -98 -15 -115 -5 -17 -12 -78 -15 -136 -3
-58 -12 -168 -20 -245 -8 -77 -18 -173 -22 -212 l-6 -73 277 0 276 0 9 23 c4
12 16 105 25 207 10 102 21 194 26 205 5 11 14 83 21 160 6 77 16 145 20 151
5 6 8 26 8 45 0 30 8 101 50 444 19 147 21 181 11 160 -8 -19 -9 -19 -9 3 -1
12 3 22 8 22 5 0 13 26 16 58 4 31 11 73 15 92 5 19 12 71 15 115 13 167 18
205 28 205 6 0 8 26 4 72 -4 40 -3 67 2 60 5 -8 13 47 20 130 7 79 16 152 21
163 5 11 14 76 20 145 6 69 16 152 21 185 12 68 39 293 68 565 11 102 25 199
31 216 23 68 45 64 -314 64 -318 0 -325 0 -331 -20z m602 -302 c-3 -8 -6 -5
-6 6 -1 11 2 17 5 13 3 -3 4 -12 1 -19z m-10 -50 c-3 -7 -5 -2 -5 12 0 14 2
19 5 13 2 -7 2 -19 0 -25z m-610 -50 c-3 -7 -5 -2 -5 12 0 14 2 19 5 13 2 -7
2 -19 0 -25z m30 -34 c-3 -3 -12 -4 -19 -1 -8 3 -5 6 6 6 11 1 17 -2 13 -5z
m0 -250 c-3 -3 -12 -4 -19 -1 -8 3 -5 6 6 6 11 1 17 -2 13 -5z m490 -431 c-3
-10 -5 -2 -5 17 0 19 2 27 5 18 2 -10 2 -26 0 -35z m-30 -5 c-3 -7 -5 -2 -5
12 0 14 2 19 5 13 2 -7 2 -19 0 -25z m-40 -60 c-3 -8 -6 -5 -6 6 -1 11 2 17 5
13 3 -3 4 -12 1 -19z m-542 -217 c3 -5 1 -12 -5 -16 -5 -3 -10 1 -10 9 0 18 6
21 15 7z m15 -161 c0 -5 -4 -10 -10 -10 -5 0 -10 5 -10 10 0 6 5 10 10 10 6 0
10 -4 10 -10z m-131 -1157 c-1 -47 -1 -47 -9 -14 -7 31 -4 61 6 61 2 0 4 -21
3 -47z m495 -207 c-3 -15 -8 -25 -11 -23 -2 3 -1 17 3 31 3 15 8 25 11 23 2
-3 1 -17 -3 -31z m-534 -266 c0 -5 -7 -10 -15 -10 -8 0 -15 5 -15 10 0 6 7 10
15 10 8 0 15 -4 15 -10z"/>
<path d="M13323 9740 c-3 -11 -9 -20 -13 -20 -4 0 -13 -21 -20 -47 -7 -27 -19
-55 -25 -63 -14 -17 -69 -132 -79 -167 -4 -13 -12 -23 -17 -23 -5 0 -9 -6 -7
-12 1 -7 -21 -60 -49 -118 -67 -135 -87 -182 -84 -197 1 -7 -3 -13 -10 -13 -6
0 -8 -7 -5 -16 3 -8 2 -13 -3 -10 -8 5 -15 -8 -60 -109 -13 -27 -28 -61 -34
-74 l-12 -24 -286 2 c-228 2 -288 -1 -292 -11 -4 -10 -6 -10 -6 0 -1 6 -13 12
-28 11 -25 0 -26 -1 -8 -9 20 -8 20 -9 -1 -9 -18 -1 -22 -9 -29 -63 -4 -35 -7
-71 -7 -80 1 -10 -3 -18 -9 -18 -5 0 -9 -15 -9 -34 0 -27 7 -39 34 -60 19 -14
37 -26 41 -26 6 0 65 -52 96 -84 10 -10 23 -15 30 -11 7 5 10 4 5 -3 -3 -6 3
-16 14 -22 11 -6 20 -7 21 -3 0 4 4 -2 9 -14 5 -13 15 -23 22 -23 9 0 10 2 2
8 -9 5 -8 11 3 21 12 11 14 11 12 0 -1 -8 -1 -24 0 -37 1 -19 5 -22 24 -17 14
4 18 3 9 -3 -10 -7 -2 -18 32 -43 25 -19 46 -42 46 -51 0 -9 -14 -47 -32 -85
-18 -37 -31 -75 -29 -83 2 -8 0 -12 -4 -8 -8 7 -18 -13 -99 -187 -26 -55 -57
-122 -70 -150 -52 -108 -78 -169 -80 -181 -1 -7 -7 -18 -13 -26 -7 -8 -26 -45
-43 -82 -25 -56 -28 -72 -18 -85 10 -13 10 -14 -1 -4 -11 10 -17 6 -31 -20
-10 -21 -13 -36 -7 -44 6 -9 5 -13 -4 -13 -8 0 -25 -24 -38 -52 -13 -29 -46
-98 -72 -153 -62 -130 -83 -178 -80 -189 1 -5 -3 -12 -8 -15 -6 -4 -18 -24
-27 -46 -14 -35 -14 -38 0 -26 9 7 14 16 12 20 -4 7 19 31 31 32 14 1 42 37
35 44 -4 4 -2 5 4 3 16 -4 106 90 99 103 -5 7 -12 6 -21 -2 -8 -7 -14 -7 -14
-1 0 14 24 22 39 12 17 -10 112 82 97 92 -7 5 -4 8 7 8 26 0 100 77 93 96 -5
12 -1 14 16 8 17 -5 20 -3 15 10 -4 10 -3 15 3 11 14 -9 263 243 254 257 -5 7
-3 8 5 3 13 -7 48 32 43 48 -1 5 2 5 9 2 6 -4 20 3 31 15 17 18 18 24 7 32
-10 6 -7 7 9 3 21 -6 23 -4 17 15 -6 19 -4 21 16 15 18 -6 21 -4 16 9 -4 10
-3 14 3 11 12 -8 53 33 45 45 -4 6 1 7 11 3 14 -5 16 -2 11 16 -4 18 -2 21 15
15 17 -5 20 -3 15 10 -4 10 -3 15 3 11 13 -8 54 31 46 44 -4 7 -1 8 8 5 9 -3
16 -2 16 3 0 13 87 103 99 103 9 0 103 -71 161 -122 109 -94 170 -139 182
-132 7 4 10 3 5 -1 -11 -13 23 -44 41 -38 9 4 13 2 9 -4 -4 -6 8 -23 25 -37
18 -15 45 -38 60 -52 16 -16 32 -23 40 -18 7 4 10 4 6 -1 -11 -11 42 -57 58
-51 7 3 16 1 19 -4 4 -6 15 -10 26 -10 10 0 19 -5 19 -11 0 -13 -42 -1 -52 15
-5 8 -8 8 -8 0 0 -11 110 -97 117 -91 7 7 -19 67 -29 67 -7 0 -7 4 -1 13 10
11 -17 227 -33 266 -3 9 -14 63 -24 121 -10 58 -23 123 -29 145 -6 22 -11 57
-11 78 0 21 -3 36 -7 34 -5 -3 -9 9 -9 26 -2 56 -8 77 -21 77 -7 0 -13 5 -13
10 0 6 4 10 9 10 5 0 7 18 4 40 -4 30 -2 40 8 40 8 0 27 11 43 25 16 14 33 25
39 25 5 0 6 7 3 16 -5 13 -3 14 6 6 9 -7 19 -5 35 8 12 9 19 21 15 24 -3 4 1
4 9 1 9 -3 27 3 40 15 23 19 23 21 6 34 -16 12 -16 14 -1 20 8 3 23 1 32 -4
14 -9 12 -10 -8 -5 -24 5 -24 4 -4 -6 18 -9 30 -5 75 27 30 21 60 45 67 53 7
9 15 15 17 14 17 -10 26 -1 14 14 -12 15 -12 16 4 10 21 -8 79 21 71 35 -3 4
2 5 10 2 9 -3 16 -2 16 4 0 5 10 13 23 16 21 7 22 7 2 17 -18 9 -18 9 3 5 15
-3 45 10 90 40 115 76 114 75 100 92 -11 13 -10 14 10 3 19 -10 26 -9 47 7 13
11 21 23 17 27 -4 5 -1 5 6 1 7 -4 24 2 38 13 l27 21 -486 0 -485 0 -5 33 c-3
17 -15 82 -26 142 -11 61 -21 125 -21 143 0 17 -4 32 -8 32 -5 0 -17 57 -26
128 -10 70 -22 134 -26 142 -4 8 -13 58 -20 110 -7 52 -18 98 -24 102 -5 4 -9
23 -8 42 3 39 -7 48 -15 16z m-3 -59 c0 -6 -4 -13 -10 -16 -5 -3 -10 1 -10 9
0 9 5 16 10 16 6 0 10 -4 10 -9z m-90 -226 c0 -5 -5 -3 -10 5 -5 8 -10 20 -10
25 0 6 5 3 10 -5 5 -8 10 -19 10 -25z m137 -177 c-3 -8 -6 -5 -6 6 -1 11 2 17
5 13 3 -3 4 -12 1 -19z m-250 -30 c-3 -8 -6 -5 -6 6 -1 11 2 17 5 13 3 -3 4
-12 1 -19z m-24 -43 c-3 -9 -8 -14 -10 -11 -3 3 -2 9 2 15 9 16 15 13 8 -4z
m24 -17 c-3 -8 -6 -5 -6 6 -1 11 2 17 5 13 3 -3 4 -12 1 -19z m13 -50 c0 -6
-7 -5 -15 2 -8 7 -15 17 -15 22 0 6 7 5 15 -2 8 -7 15 -17 15 -22z m-49 -21
c-10 -9 -11 -8 -5 6 3 10 9 15 12 12 3 -3 0 -11 -7 -18z m-94 -144 c-3 -10 -5
-4 -5 12 0 17 2 24 5 18 2 -7 2 -21 0 -30z m490 -109 c-3 -3 -12 -4 -19 -1 -8
3 -5 6 6 6 11 1 17 -2 13 -5z m-547 -24 c0 -5 -5 -10 -11 -10 -5 0 -7 5 -4 10
3 6 8 10 11 10 2 0 4 -4 4 -10z m568 -15 c-3 -3 -9 2 -12 12 -6 14 -5 15 5 6
7 -7 10 -15 7 -18z m52 -5 c-7 -5 -9 -13 -5 -21 5 -8 -2 -5 -14 6 -21 18 -21
20 -4 26 22 8 40 -1 23 -11z m-665 0 c3 -5 1 -10 -4 -10 -6 0 -11 5 -11 10 0
6 2 10 4 10 3 0 8 -4 11 -10z m-608 -32 c-3 -8 -6 -5 -6 6 -1 11 2 17 5 13 3
-3 4 -12 1 -19z m1933 -17 c0 -12 -20 -25 -27 -18 -7 7 6 27 18 27 5 0 9 -4 9
-9z m67 -13 c-3 -8 -6 -5 -6 6 -1 11 2 17 5 13 3 -3 4 -12 1 -19z m-1990 -20
c-3 -8 -6 -5 -6 6 -1 11 2 17 5 13 3 -3 4 -12 1 -19z m1968 2 c-3 -5 -11 -10
-16 -10 -6 0 -7 5 -4 10 3 6 11 10 16 10 6 0 7 -4 4 -10z m-1938 -22 c-3 -8
-6 -5 -6 6 -1 11 2 17 5 13 3 -3 4 -12 1 -19z m1860 -34 c-3 -3 -12 -4 -19 -1
-8 3 -5 6 6 6 11 1 17 -2 13 -5z m-297 -114 c0 -5 -5 -10 -11 -10 -5 0 -7 5
-4 10 3 6 8 10 11 10 2 0 4 -4 4 -10z m30 -25 c-7 -8 -17 -15 -23 -15 -5 0 -2
9 8 20 21 23 35 19 15 -5z m30 -19 c0 -2 -8 -10 -17 -17 -16 -13 -17 -12 -4 4
13 16 21 21 21 13z m-50 -31 c0 -8 -4 -15 -8 -15 -5 0 -9 7 -9 15 0 8 4 15 9
15 4 0 8 -7 8 -15z m-1404 -42 c-6 -6 -36 9 -36 18 0 5 9 4 20 -3 10 -7 18
-14 16 -15z m1094 -78 c0 -8 -4 -15 -10 -15 -5 0 -7 7 -4 15 4 8 8 15 10 15 2
0 4 -7 4 -15z m95 -4 c-3 -6 -11 -11 -16 -11 -5 0 -4 6 3 14 14 16 24 13 13
-3z m-1045 -16 c-7 -9 -15 -13 -19 -10 -3 3 1 10 9 15 21 14 24 12 10 -5z
m1010 -4 c0 -5 -9 -7 -20 -4 -11 3 -20 7 -20 9 0 2 9 4 20 4 11 0 20 -4 20 -9z
m-50 -31 c0 -5 -2 -10 -4 -10 -3 0 -8 5 -11 10 -3 6 -1 10 4 10 6 0 11 -4 11
-10z m40 -10 c0 -5 -4 -10 -10 -10 -5 0 -10 5 -10 10 0 6 5 10 10 10 6 0 10
-4 10 -10z m-54 -106 c-4 -9 -9 -15 -11 -12 -3 3 -3 13 1 22 4 9 9 15 11 12 3
-3 3 -13 -1 -22z m-949 -26 c-3 -7 -5 -2 -5 12 0 14 2 19 5 13 2 -7 2 -19 0
-25z m-36 -95 c-12 -20 -14 -14 -5 12 4 9 9 14 11 11 3 -2 0 -13 -6 -23z m986
5 c-3 -8 -6 -5 -6 6 -1 11 2 17 5 13 3 -3 4 -12 1 -19z m-1056 -179 c-6 -16
-10 -18 -10 -7 -1 22 12 55 16 42 2 -6 -1 -22 -6 -35z m596 -1 c-3 -8 -6 -5
-6 6 -1 11 2 17 5 13 3 -3 4 -12 1 -19z m108 -38 c3 -5 1 -10 -4 -10 -6 0 -11
5 -11 10 0 6 2 10 4 10 3 0 8 -4 11 -10z m-759 -38 c-17 -16 -18 -16 -5 5 7
12 15 20 18 17 3 -2 -3 -12 -13 -22z m508 7 c-8 -13 -21 -11 -27 5 -4 10 0 12
14 9 10 -3 16 -9 13 -14z m703 -11 c-3 -8 -6 -5 -6 6 -1 11 2 17 5 13 3 -3 4
-12 1 -19z m0 -70 c-3 -8 -6 -5 -6 6 -1 11 2 17 5 13 3 -3 4 -12 1 -19z m-352
3 c3 -6 -3 -9 -14 -8 -11 0 -17 5 -15 9 7 11 22 10 29 -1z m115 -1 c0 -5 -5
-10 -11 -10 -5 0 -7 5 -4 10 3 6 8 10 11 10 2 0 4 -4 4 -10z m-60 -20 c0 -5
-4 -10 -10 -10 -5 0 -10 5 -10 10 0 6 5 10 10 10 6 0 10 -4 10 -10z m-951 -89
c1 -35 -5 -22 -12 24 -5 28 -4 34 3 20 5 -11 9 -31 9 -44z m971 43 c0 -14 -3
-14 -15 -4 -8 7 -15 14 -15 16 0 2 7 4 15 4 8 0 15 -7 15 -16z m-996 -27 c7
-6 6 -7 -4 -4 -8 2 -16 12 -17 23 -2 13 -1 15 4 4 3 -8 11 -19 17 -23z m1076
-19 c0 -6 -6 -5 -15 2 -8 7 -15 14 -15 16 0 2 7 1 15 -2 8 -4 15 -11 15 -16z
m-1070 -33 c14 -19 14 -19 -2 -6 -10 7 -18 18 -18 24 0 6 1 8 3 6 1 -2 9 -13
17 -24z m1129 0 c3 -17 2 -17 -13 -3 -19 20 -21 31 -3 26 6 -3 14 -13 16 -23z
m-39 -5 c0 -5 -2 -10 -4 -10 -3 0 -8 5 -11 10 -3 6 -1 10 4 10 6 0 11 -4 11
-10z m189 -60 c0 -9 -4 -8 -9 5 -5 11 -9 27 -9 35 0 9 4 8 9 -5 5 -11 9 -27 9
-35z m-155 24 c5 -14 4 -15 -9 -4 -17 14 -19 20 -6 20 5 0 12 -7 15 -16z
m-864 -34 c0 -5 -5 -10 -11 -10 -5 0 -7 5 -4 10 3 6 8 10 11 10 2 0 4 -4 4
-10z m970 -10 c0 -5 -2 -10 -4 -10 -3 0 -8 5 -11 10 -3 6 -1 10 4 10 6 0 11
-4 11 -10z m80 -50 c0 -5 -5 -10 -11 -10 -5 0 -7 5 -4 10 3 6 8 10 11 10 2 0
4 -4 4 -10z m-1420 -42 c0 -4 -4 -8 -9 -8 -6 0 -12 4 -15 8 -3 5 1 9 9 9 8 0
15 -4 15 -9z m1454 -44 c5 -14 4 -15 -9 -4 -17 14 -19 20 -6 20 5 0 12 -7 15
-16z m-1564 -154 c0 -5 -5 -10 -11 -10 -5 0 -7 5 -4 10 3 6 8 10 11 10 2 0 4
-4 4 -10z m7 -92 c-3 -8 -6 -5 -6 6 -1 11 2 17 5 13 3 -3 4 -12 1 -19z m43
-28 c0 -5 -2 -10 -4 -10 -3 0 -8 5 -11 10 -3 6 -1 10 4 10 6 0 11 -4 11 -10z
m-130 -59 c0 -6 -4 -13 -10 -16 -5 -3 -10 1 -10 9 0 9 5 16 10 16 6 0 10 -4
10 -9z m-52 -106 c-3 -3 -9 2 -12 12 -6 14 -5 15 5 6 7 -7 10 -15 7 -18z"/>
<path d="M3680 6569 c-30 -18 -56 -33 -58 -34 -3 -3 15 -42 23 -53 1 -1 29 10
63 25 l60 28 -13 33 c-8 17 -15 32 -17 32 -2 0 -28 -14 -58 -31z"/>
<path d="M2623 6575 c-3 -9 -3 -100 -1 -203 5 -201 12 -236 60 -280 23 -21 33
-23 109 -20 l83 3 31 43 30 44 3 214 3 215 -43 -3 -43 -3 -5 -201 c-6 -222 -9
-234 -66 -234 -61 0 -68 25 -72 247 l-4 193 -39 0 c-26 0 -42 -5 -46 -15z"/>
<path d="M3387 6583 c-4 -3 -7 -26 -7 -50 l0 -43 45 0 45 0 0 50 0 50 -38 0
c-21 0 -42 -3 -45 -7z"/>
<path d="M4465 6580 c-4 -6 -26 -113 -50 -238 -25 -125 -47 -237 -50 -249 -5
-21 -2 -23 40 -23 41 0 45 2 51 28 3 15 7 33 10 40 2 8 25 12 68 12 l64 0 7
-40 c7 -40 7 -40 52 -40 44 0 45 1 40 28 -3 15 -25 132 -48 260 l-43 232 -67
0 c-37 0 -71 -5 -74 -10z m95 -215 c11 -61 20 -116 20 -122 0 -9 -17 -13 -51
-13 -48 0 -51 1 -45 23 3 12 13 70 23 130 9 59 20 104 25 99 4 -4 17 -57 28
-117z"/>
<path d="M6260 6540 l0 -50 40 0 40 0 0 50 0 50 -40 0 -40 0 0 -50z"/>
<path d="M7440 6509 c0 -80 -1 -81 -22 -75 -68 18 -99 18 -120 0 -38 -34 -58
-93 -58 -175 0 -63 5 -85 28 -130 26 -51 29 -54 70 -57 24 -2 56 3 72 11 25
13 31 13 41 1 6 -8 24 -14 40 -14 l29 0 0 260 0 260 -40 0 -40 0 0 -81z m-2
-251 l-3 -113 -40 0 c-32 0 -42 5 -52 25 -16 31 -17 141 -1 175 9 21 18 25 55
25 l44 0 -3 -112z"/>
<path d="M8136 6578 c-7 -24 -96 -483 -96 -495 0 -9 15 -13 44 -13 44 0 44 0
51 40 l7 40 64 0 c43 0 66 -4 68 -12 3 -7 7 -25 10 -40 6 -25 11 -28 50 -28
l43 0 -44 238 c-23 130 -45 247 -48 260 -5 20 -11 22 -76 22 -47 0 -71 -4 -73
-12z m99 -213 c9 -60 19 -115 22 -122 4 -10 -8 -13 -46 -13 -60 0 -59 -8 -31
144 11 60 20 112 20 115 0 3 4 1 9 -4 4 -6 16 -59 26 -120z"/>
<path d="M8907 6583 c-4 -3 -7 -26 -7 -50 l0 -43 45 0 45 0 0 50 0 50 -38 0
c-21 0 -42 -3 -45 -7z"/>
<path d="M10477 6583 c-4 -3 -7 -39 -7 -80 l0 -73 -27 7 c-16 4 -46 8 -67 8
-37 0 -42 -4 -69 -47 -51 -81 -48 -209 6 -289 19 -28 30 -35 64 -37 24 -2 55
4 73 13 27 14 31 14 36 0 4 -9 19 -15 40 -15 l34 0 0 260 0 260 -38 0 c-21 0
-42 -3 -45 -7z m-9 -325 l-3 -113 -40 0 c-37 0 -41 3 -52 35 -16 48 -16 114 1
155 14 32 19 35 56 35 l41 0 -3 -112z"/>
<path d="M11070 6583 c0 -4 23 -122 52 -261 l52 -253 65 3 66 3 46 225 c25
124 49 240 53 258 l8 32 -46 0 c-24 0 -47 -4 -50 -9 -3 -4 -19 -91 -36 -192
-17 -101 -35 -188 -40 -192 -4 -5 -13 24 -20 65 -7 40 -22 129 -34 198 l-22
125 -47 3 c-26 2 -47 -1 -47 -5z"/>
<path d="M12007 6583 c-4 -3 -7 -26 -7 -50 l0 -43 45 0 45 0 0 50 0 50 -38 0
c-21 0 -42 -3 -45 -7z"/>
<path d="M12700 6509 c0 -80 0 -81 -22 -75 -13 3 -41 9 -64 12 -38 6 -43 4
-66 -27 -37 -49 -51 -102 -46 -178 2 -47 11 -83 29 -117 24 -47 27 -49 73 -52
30 -2 56 2 71 12 20 13 25 13 35 1 7 -8 28 -15 46 -15 l34 0 0 260 0 260 -45
0 -45 0 0 -81z m-2 -251 l-3 -113 -37 -3 c-32 -3 -39 1 -52 27 -18 35 -21 124
-5 170 10 28 15 31 55 31 l45 0 -3 -112z"/>
<path d="M13400 6509 c0 -80 -1 -81 -22 -75 -68 18 -99 18 -120 0 -38 -34 -58
-93 -58 -175 0 -63 5 -85 28 -130 26 -51 29 -54 70 -57 24 -2 56 3 72 11 25
13 31 13 41 1 6 -8 24 -14 40 -14 l29 0 0 260 0 260 -40 0 -40 0 0 -81z m-2
-251 l-3 -113 -40 0 c-32 0 -42 5 -52 25 -16 31 -17 141 -1 175 9 21 18 25 55
25 l44 0 -3 -112z"/>
<path d="M6050 6501 c0 -47 -2 -50 -27 -53 -25 -3 -28 -7 -28 -38 0 -30 3 -35
27 -38 l26 -3 4 -124 c3 -115 5 -125 27 -149 20 -21 34 -26 73 -26 l48 0 0 34
c0 30 -4 35 -27 38 -34 4 -41 25 -42 140 l-1 87 33 3 c29 3 32 6 32 38 0 32
-3 35 -32 38 -32 3 -33 4 -33 53 l0 49 -40 0 -40 0 0 -49z"/>
<path d="M8690 6500 c0 -47 -2 -50 -25 -50 -22 0 -25 -4 -25 -40 0 -36 3 -40
24 -40 24 0 24 -1 28 -119 3 -103 6 -124 24 -148 18 -23 30 -28 73 -31 l51 -3
0 35 c0 28 -4 36 -18 36 -35 0 -42 21 -42 127 l0 103 30 0 c28 0 30 2 30 40 0
38 -2 40 -30 40 -29 0 -30 1 -30 50 l0 50 -45 0 -45 0 0 -50z"/>
<path d="M9350 6500 c0 -47 -2 -50 -25 -50 -22 0 -25 -4 -25 -40 0 -36 3 -40
24 -40 24 0 24 -1 28 -119 3 -103 6 -124 24 -148 18 -23 30 -28 73 -31 l51 -3
0 35 c0 28 -4 36 -18 36 -35 0 -42 21 -42 127 l0 103 30 0 c28 0 30 2 30 40 0
38 -2 40 -30 40 -29 0 -30 1 -30 50 l0 50 -45 0 -45 0 0 -50z"/>
<path d="M3020 6260 l0 -190 45 0 45 0 0 150 0 150 45 0 c34 0 47 -5 55 -19 5
-11 10 -78 10 -150 l0 -131 45 0 45 0 0 123 c0 134 -16 211 -50 242 -16 14
-30 17 -71 12 -28 -4 -57 -12 -65 -18 -11 -9 -18 -8 -32 5 -10 9 -31 16 -45
16 l-27 0 0 -190z"/>
<path d="M3387 6443 c-4 -3 -7 -89 -7 -190 l0 -183 45 0 45 0 0 190 0 190 -38
0 c-21 0 -42 -3 -45 -7z"/>
<path d="M3593 6428 c-36 -38 -53 -92 -53 -167 0 -75 9 -108 43 -158 22 -33
23 -33 104 -33 l83 0 25 38 c54 82 55 225 2 304 -22 32 -25 33 -103 36 -72 2
-82 1 -101 -20z m139 -80 c19 -35 16 -150 -6 -182 -22 -35 -65 -33 -83 4 -15
30 -17 138 -3 174 13 35 73 37 92 4z"/>
<path d="M3907 6443 c-4 -3 -7 -89 -7 -190 l0 -183 45 0 45 0 0 150 0 150 49
0 c37 0 51 -4 56 -17 5 -10 10 -78 13 -150 l4 -133 39 0 39 0 0 143 c0 131 -2
148 -23 188 -21 40 -27 44 -64 47 -23 2 -58 -4 -79 -13 -34 -14 -39 -14 -46 0
-9 15 -59 21 -71 8z"/>
<path d="M4757 6443 c-4 -3 -7 -89 -7 -190 l0 -183 45 0 45 0 0 140 0 140 50
0 50 0 0 50 c0 57 -6 60 -65 30 -38 -20 -38 -20 -52 0 -14 19 -53 27 -66 13z"/>
<path d="M5017 6418 c-14 -18 -30 -50 -37 -71 -17 -54 -9 -154 16 -202 21 -40
21 -40 80 -40 32 1 67 4 77 9 14 7 17 3 17 -27 0 -46 -14 -55 -85 -59 -60 -3
-60 -3 -63 -35 l-3 -33 86 0 c77 0 88 2 110 24 37 37 45 88 45 284 l0 182 -35
0 c-19 0 -37 -6 -42 -15 -7 -12 -14 -12 -48 0 -65 23 -91 19 -118 -17z m153
-148 l0 -100 -45 0 c-40 0 -47 3 -55 26 -13 34 -13 103 1 143 10 28 15 31 55
31 l44 0 0 -100z"/>
<path d="M5377 6411 c-79 -87 -73 -240 10 -317 23 -22 35 -24 114 -24 l89 0 0
35 0 35 -62 0 c-69 0 -79 4 -97 37 -20 39 -14 42 82 45 l92 3 3 44 c4 57 -21
123 -59 156 -24 20 -41 25 -84 25 -49 0 -55 -3 -88 -39z m141 -66 c22 -49 17
-55 -48 -55 -65 0 -66 1 -49 49 10 27 15 31 48 31 31 0 40 -5 49 -25z"/>
<path d="M5677 6443 c-4 -3 -7 -89 -7 -190 l0 -183 45 0 45 0 0 150 0 150 49
0 c35 0 51 -4 55 -16 3 -9 6 -76 6 -150 l0 -134 45 0 45 0 0 138 c0 129 -2
141 -27 191 l-26 54 -59 -6 c-32 -3 -66 -11 -74 -18 -14 -11 -18 -10 -29 4
-12 17 -55 23 -68 10z"/>
<path d="M6260 6260 l0 -190 40 0 40 0 0 190 0 190 -40 0 -40 0 0 -190z"/>
<path d="M6420 6260 l0 -190 45 0 45 0 0 150 0 150 45 0 c34 0 47 -5 55 -19 5
-11 10 -78 10 -150 l0 -131 45 0 45 0 0 123 c0 134 -16 211 -50 242 -16 14
-30 17 -71 12 -28 -4 -57 -12 -65 -18 -11 -9 -18 -8 -32 5 -10 9 -31 16 -45
16 l-27 0 0 -190z"/>
<path d="M6804 6436 c-3 -8 -4 -25 -2 -38 3 -21 9 -23 78 -28 l75 -5 3 -37 c3
-37 3 -38 -23 -28 -14 6 -44 10 -65 10 -96 0 -131 -153 -52 -224 18 -15 31
-18 68 -12 26 3 52 11 59 16 9 7 16 6 25 -5 7 -8 28 -15 46 -15 l34 0 0 140
c0 213 -17 240 -158 240 -62 0 -84 -3 -88 -14z m156 -246 l0 -50 -38 0 c-46 0
-62 14 -62 55 0 41 5 45 57 45 l43 0 0 -50z"/>
<path d="M7647 6411 c-79 -87 -73 -240 10 -317 23 -22 35 -24 114 -24 l89 0 0
35 0 35 -62 0 c-69 0 -79 4 -97 37 -20 39 -14 42 82 45 l92 3 3 44 c4 57 -21
123 -59 156 -24 20 -41 25 -84 25 -49 0 -55 -3 -88 -39z m141 -66 c22 -49 17
-55 -48 -55 -65 0 -66 1 -49 49 10 27 15 31 48 31 31 0 40 -5 49 -25z"/>
<path d="M8430 6260 l0 -190 45 0 45 0 0 140 0 140 45 0 45 0 0 50 c0 50 0 50
-27 44 -16 -4 -35 -13 -44 -20 -22 -19 -36 -17 -42 6 -4 15 -14 20 -36 20
l-31 0 0 -190z"/>
<path d="M8907 6443 c-4 -3 -7 -89 -7 -190 l0 -183 45 0 45 0 0 190 0 190 -38
0 c-21 0 -42 -3 -45 -7z"/>
<path d="M9077 6430 c-45 -35 -37 -72 38 -182 35 -53 61 -98 58 -102 -4 -3
-33 -6 -65 -6 l-58 0 0 -35 0 -35 88 0 c72 0 92 3 104 18 40 45 29 86 -51 206
l-51 75 58 3 57 3 0 35 0 35 -76 3 c-64 2 -79 0 -102 -18z"/>
<path d="M9580 6410 l0 -40 70 0 c65 0 71 -2 82 -24 17 -38 5 -58 -27 -46 -92
35 -155 -14 -155 -119 0 -39 6 -56 27 -81 25 -30 30 -32 76 -27 27 4 55 11 62
17 9 7 16 6 25 -5 7 -8 29 -15 49 -15 l36 0 -3 142 c-4 215 -20 238 -158 238
l-84 0 0 -40z m158 -217 c-3 -48 -3 -48 -41 -51 -44 -4 -67 11 -67 43 0 47 9
55 62 55 l49 0 -3 -47z"/>
<path d="M9911 6433 c-11 -10 -24 -32 -27 -49 -5 -26 4 -45 60 -128 36 -53 66
-101 66 -107 0 -5 -29 -9 -65 -9 l-65 0 0 -35 0 -35 94 0 c87 0 96 2 110 22
33 46 20 88 -59 201 -25 36 -45 68 -45 71 0 3 25 6 55 6 l55 0 0 40 0 40 -79
0 c-60 0 -84 -4 -100 -17z"/>
<path d="M10697 6430 c-85 -67 -91 -248 -10 -332 25 -27 31 -28 120 -28 l93 0
0 35 0 35 -70 0 c-69 0 -71 1 -90 33 -11 17 -20 35 -20 40 0 4 43 7 95 7 l95
0 0 63 c0 66 -21 115 -63 149 -32 25 -117 24 -150 -2z m123 -79 c5 -11 10 -29
10 -40 0 -19 -6 -21 -55 -21 -49 0 -55 2 -55 21 0 39 19 59 55 59 24 0 38 -6
45 -19z"/>
<path d="M11444 6436 c-3 -8 -4 -25 -2 -38 3 -21 9 -23 78 -28 l75 -5 3 -37
c3 -37 3 -38 -23 -28 -14 6 -44 10 -65 10 -96 0 -131 -153 -52 -224 18 -15 31
-18 68 -12 26 3 52 11 59 16 9 7 16 6 25 -5 7 -8 28 -15 46 -15 l34 0 0 140
c0 213 -17 240 -158 240 -62 0 -84 -3 -88 -14z m156 -246 l0 -50 -38 0 c-46 0
-62 14 -62 55 0 41 5 45 57 45 l43 0 0 -50z"/>
<path d="M11770 6260 l0 -190 40 0 40 0 0 140 0 140 50 0 50 0 0 50 c0 57 -6
60 -65 30 -37 -19 -54 -15 -55 13 0 4 -13 7 -30 7 l-30 0 0 -190z"/>
<path d="M12007 6443 c-4 -3 -7 -89 -7 -190 l0 -183 45 0 45 0 0 190 0 190
-38 0 c-21 0 -42 -3 -45 -7z"/>
<path d="M12226 6425 c-83 -77 -88 -239 -10 -321 31 -34 32 -34 123 -34 l91 0
0 35 0 35 -69 0 c-61 0 -72 3 -85 22 -9 12 -16 30 -16 40 0 16 10 18 89 18 84
0 89 1 95 23 15 58 -5 130 -49 174 -29 29 -39 33 -88 33 -44 0 -59 -5 -81 -25z
m133 -86 c17 -48 16 -49 -49 -49 -65 0 -69 5 -50 54 8 22 16 26 49 26 35 0 40
-3 50 -31z"/>
<path d="M12884 6436 c-3 -8 -4 -25 -2 -38 3 -21 9 -23 78 -28 l75 -5 3 -37
c3 -37 3 -38 -23 -28 -14 6 -44 10 -65 10 -96 0 -131 -153 -52 -224 18 -15 31
-18 68 -12 26 3 52 11 59 16 9 7 16 6 25 -5 7 -8 28 -15 46 -15 l34 0 0 140
c0 213 -17 240 -158 240 -62 0 -84 -3 -88 -14z m156 -246 l0 -50 -38 0 c-46 0
-62 14 -62 55 0 41 5 45 57 45 l43 0 0 -50z"/>
<path d="M13607 6411 c-79 -87 -73 -240 10 -317 23 -22 35 -24 114 -24 l89 0
0 35 0 35 -62 0 c-69 0 -79 4 -97 37 -20 39 -14 42 82 45 l92 3 3 44 c4 57
-21 123 -59 156 -24 20 -41 25 -84 25 -49 0 -55 -3 -88 -39z m141 -66 c22 -49
17 -55 -48 -55 -65 0 -66 1 -49 49 10 27 15 31 48 31 31 0 40 -5 49 -25z"/>
<path d="M13901 6433 c-11 -10 -24 -32 -27 -49 -5 -26 4 -45 60 -128 36 -53
66 -101 66 -107 0 -5 -29 -9 -65 -9 l-65 0 0 -35 0 -35 94 0 c87 0 96 2 110
22 33 46 20 88 -59 201 -25 36 -45 68 -45 71 0 3 25 6 55 6 l55 0 0 40 0 40
-79 0 c-60 0 -84 -4 -100 -17z"/>
</g>
</svg>
